<?xml version="1.0" encoding="utf-8"?>
<!-- Generator: Adobe Illustrator 24.0.3, SVG Export Plug-In . SVG Version: 6.00 Build 0)  -->
<svg version="1.1" id="Capa_1" xmlns="http://www.w3.org/2000/svg" xmlns:xlink="http://www.w3.org/1999/xlink" x="0px" y="0px"
	 viewBox="0 0 1842 1052" style="enable-background:new 0 0 1842 1052;" xml:space="preserve">
<style type="text/css">
	.st0{clip-path:url(#SVGID_2_);}
	.st1{fill:#1B181D;}
	.st2{fill:#183651;}
	.st3{fill:#918F8F;}
	.st4{clip-path:url(#SVGID_4_);}
	.st5{fill:#6E6B6C;}
	.st6{fill:#15151E;}
	.st7{fill:#FFFFFF;}
	.st8{fill:#333650;}
	.st9{fill:#ED3947;}
	.st10{fill:#80CC28;}
	.st11{fill:#EBB72E;}
	.st12{fill:#3BBEC5;}
	.st13{fill:#00ADEF;}
	.st14{fill:#352F38;}
	.st15{fill:#354B67;}
	.st16{fill:#2F2D3B;}
	.st17{fill:#4E4D67;}
	.st18{fill:#F05D5E;}
	.st19{fill:#62CBCD;}
	.st20{fill:#33BDF2;}
	.st21{fill:#99D64B;}
	.st22{fill:#1A1A1A;}
	.st23{clip-path:url(#SVGID_6_);}
	.st24{fill:#004A75;}
	.st25{clip-path:url(#SVGID_8_);}
	.st26{fill:#CED7DB;}
	.st27{fill:#B3C0C7;}
	.st28{clip-path:url(#SVGID_10_);}
	.st29{fill:#00D8FF;}
	.st30{fill:#E6E7E8;}
	.st31{fill:#1D262D;}
	.st32{fill:#222C33;}
	.st33{fill:#939598;}
	.st34{font-family:'OpenSans-Semibold';}
	.st35{font-size:5.2405px;}
	.st36{fill:none;stroke:#FFFFFF;stroke-width:0.7128;stroke-miterlimit:10;}
	.st37{fill:#39B54A;}
	.st38{fill:none;}
	.st39{font-family:'OpenSans-Light';}
	.st40{font-size:6.2047px;}
	.st41{font-size:3.7299px;}
	.st42{font-family:'GlacialIndifference-Bold';}
	.st43{font-size:6.6768px;}
	.st44{fill:#FCAB10;}
	.st45{font-family:'OpenSans';}
	.st46{font-size:7.8669px;}
	.st47{fill:none;stroke:#D1D3D4;stroke-width:0.5;stroke-miterlimit:10;}
	.st48{font-size:3.0307px;}
	.st49{fill:none;stroke:url(#SVGID_11_);stroke-width:2;stroke-miterlimit:10;}
	.st50{fill:#F8333C;}
	.st51{fill:#2B9EB3;}
	.st52{font-size:4.1182px;}
	.st53{fill:#6D6E71;}
	.st54{fill:#D1D3D4;}
	.st55{font-size:3.9947px;}
	.st56{fill:#808285;}
	.st57{font-size:8.4248px;}
	.st58{fill:none;stroke:#D1D3D4;stroke-width:0.8987;stroke-miterlimit:10;}
	.st59{fill:#F9F8F7;}
	.st60{fill:none;stroke:#D1D3D4;stroke-width:1.2281;stroke-miterlimit:10;}
	.st61{font-size:2.9797px;}
	.st62{font-size:3.5756px;}
	.st63{fill:#DBD5B5;}
	.st64{fill:#118696;}
	.st65{font-size:2.3838px;}
	.st66{fill:#189624;}
	.st67{fill:#E8901A;}
	.st68{font-size:5.1453px;}
	.st69{fill:#A7A9AC;}
	.st70{font-family:'OpenSansLight-Italic';}
</style>
<g>
	<defs>
		<rect id="SVGID_1_" x="365.3" y="167" width="1085.2" height="751.6"/>
	</defs>
	<clipPath id="SVGID_2_">
		<use xlink:href="#SVGID_1_"  style="overflow:visible;"/>
	</clipPath>
	<g class="st0">
		<path class="st1" d="M1449.6,897c0,11.4-9.2,20.6-20.6,20.6H386c-11.4,0-20.6-9.2-20.6-20.6V187.7c0-11.4,9.2-20.6,20.6-20.6h1043
			c11.4,0,20.6,9.2,20.6,20.6V897"/>
	</g>
</g>
<path class="st2" d="M1405.6,863.7c0,3.7-3,6.7-6.7,6.7H416.1c-3.7,0-6.7-3-6.7-6.7V221c0-3.7,3-6.7,6.7-6.7h982.7
	c3.7,0,6.7,3,6.7,6.7V863.7"/>
<path class="st3" d="M773,1006h269v-88.4H773V1006z"/>
<g>
	<defs>
		<rect id="SVGID_3_" x="732" y="1005.3" width="352" height="46.5"/>
	</defs>
	<clipPath id="SVGID_4_">
		<use xlink:href="#SVGID_3_"  style="overflow:visible;"/>
	</clipPath>
	<g class="st4">
		<path class="st5" d="M1083,1052.2H732V1006h351V1052.2"/>
	</g>
</g>
<path class="st6" d="M479.9,850.1h855.2V272.7H479.9V850.1z"/>
<path class="st7" d="M532.1,850.1h2.9V272.7h-2.9V850.1z"/>
<path class="st8" d="M479.9,272.4h855.2v-47.6H479.9V272.4z"/>
<path class="st9" d="M1233.3,248.6c0,8.9-7.2,16.2-16.2,16.2c-8.9,0-16.2-7.2-16.2-16.2c0-8.9,7.2-16.2,16.2-16.2
	C1226.1,232.4,1233.3,239.7,1233.3,248.6"/>
<path class="st10" d="M1275.9,248.6c0,8.9-7.2,16.2-16.2,16.2c-8.9,0-16.2-7.2-16.2-16.2c0-8.9,7.2-16.2,16.2-16.2
	C1268.7,232.4,1275.9,239.7,1275.9,248.6"/>
<path class="st11" d="M1318.1,248.6c0,8.9-7.2,16.2-16.2,16.2c-8.9,0-16.2-7.2-16.2-16.2c0-8.9,7.2-16.2,16.2-16.2
	C1310.9,232.4,1318.1,239.7,1318.1,248.6"/>
<path class="st7" d="M492.5,294.7h28.4v-8.7h-28.4V294.7z"/>
<path class="st7" d="M492.5,323.1h28.4v-8.7h-28.4V323.1z"/>
<path class="st7" d="M492.5,351.5h28.4v-8.7h-28.4V351.5z"/>
<path class="st7" d="M492.5,379.9h28.4v-8.7h-28.4V379.9z"/>
<path class="st7" d="M492.5,408.3h28.4v-8.7h-28.4V408.3z"/>
<path class="st7" d="M492.5,436.7h28.4v-8.7h-28.4V436.7z"/>
<path class="st7" d="M492.5,465.1h28.4v-8.7h-28.4V465.1z"/>
<path class="st7" d="M492.5,493.5h28.4v-8.7h-28.4V493.5z"/>
<path class="st7" d="M492.5,521.9h28.4v-8.7h-28.4V521.9z"/>
<path class="st7" d="M492.5,550.3h28.4v-8.7h-28.4V550.3z"/>
<path class="st7" d="M492.5,578.7h28.4v-8.7h-28.4V578.7z"/>
<path class="st7" d="M492.5,607.1h28.4v-8.7h-28.4V607.1z"/>
<path class="st7" d="M492.5,635.5h28.4v-8.7h-28.4V635.5z"/>
<path class="st7" d="M492.5,663.9h28.4v-8.7h-28.4V663.9z"/>
<path class="st7" d="M492.5,692.3h28.4v-8.7h-28.4V692.3z"/>
<path class="st7" d="M492.5,720.7h28.4V712h-28.4V720.7z"/>
<path class="st7" d="M492.5,749.1h28.4v-8.7h-28.4V749.1z"/>
<path class="st7" d="M492.5,777.5h28.4v-8.7h-28.4V777.5z"/>
<path class="st7" d="M492.5,805.9h28.4v-8.7h-28.4V805.9z"/>
<path class="st7" d="M492.5,834.3h28.4v-8.7h-28.4V834.3z"/>
<path class="st9" d="M550.9,294.7h110.5v-8.7H550.9V294.7z"/>
<path class="st9" d="M665.7,611.5h110.5v-8.7H665.7V611.5z"/>
<path class="st9" d="M665.7,578.7h41.8v-8.7h-41.8V578.7z"/>
<path class="st12" d="M550.9,323.1h41.8v-8.7h-41.8V323.1z"/>
<path class="st12" d="M550.9,351.5h61.9v-8.7h-61.9V351.5z"/>
<path class="st7" d="M623.5,379.9h124.2v-8.7H623.5V379.9z"/>
<path class="st7" d="M990.3,379.9H810.4v-8.7h179.9V379.9"/>
<path class="st7" d="M791.5,379.9h-31.9v-8.7h31.9V379.9"/>
<path class="st7" d="M650.7,432.4H775v-8.7H650.7V432.4z"/>
<path class="st7" d="M1017.5,432.4H837.7v-8.7h179.9V432.4"/>
<path class="st7" d="M818.7,432.4h-32v-8.7h32V432.4"/>
<path class="st7" d="M650.7,404H730v-8.7h-79.3V404z"/>
<path class="st7" d="M744.2,395.3v8.7H775v-8.7H744.2"/>
<path class="st7" d="M900.4,404h-62.7v-8.7h62.7V404"/>
<path class="st7" d="M818.7,404h-32v-8.7h32V404"/>
<path class="st7" d="M752.1,708.7h79.3V700h-79.3V708.7z"/>
<path class="st7" d="M845.6,708.7h30.8V700h-30.8V708.7z"/>
<path class="st7" d="M939.1,708.7h62.7V700h-62.7V708.7z"/>
<path class="st7" d="M888.2,708.7h32V700h-32V708.7z"/>
<path class="st13" d="M623.5,351.5h21.3v-8.7h-21.3V351.5z"/>
<path class="st12" d="M666.5,635.5h41.8v-8.7h-41.8V635.5z"/>
<path class="st12" d="M666.5,663.9h61.9v-8.7h-61.9V663.9z"/>
<path class="st13" d="M739.1,663.9h21.3v-8.7h-21.3V663.9z"/>
<path class="st12" d="M666.5,787.4h41.8v-8.7h-41.8V787.4z"/>
<path class="st12" d="M666.5,815.8h61.9v-8.7h-61.9V815.8z"/>
<path class="st13" d="M739.1,815.8h21.3v-8.7h-21.3V815.8z"/>
<path class="st12" d="M550.9,493.5h61.9v-8.7h-61.9V493.5z"/>
<path class="st13" d="M623.5,493.5h21.3v-8.7h-21.3V493.5z"/>
<path class="st10" d="M705.5,294.7h-28.4v-8.7h28.4V294.7"/>
<path class="st10" d="M623.5,530.6h120.7v-8.7H623.5V530.6z"/>
<path class="st7" d="M650.7,465.1h182.2v-8.7H650.7V465.1z"/>
<path class="st7" d="M983.2,465.1H843.6v-8.7h139.6V465.1"/>
<path class="st7" d="M752.1,740.4h105.7v-8.7H752.1V740.4z"/>
<path class="st7" d="M868.8,740.4h148.3v-8.7H868.8V740.4z"/>
<path class="st7" d="M752.1,768.8h45.8v-8.7h-45.8V768.8z"/>
<path class="st7" d="M811.2,768.8h46.5v-8.7h-46.5V768.8z"/>
<path class="st7" d="M990.3,768.8h26.8v-8.7h-26.8V768.8z"/>
<path class="st7" d="M868.8,768.8h111.2v-8.7H868.8V768.8z"/>
<path class="st7" d="M1429.1,917.6C1429.1,917.6,1429.1,917.6,1429.1,917.6C1429.1,917.6,1429.1,917.6,1429.1,917.6 M1429.1,917.6
	C1429.2,917.6,1429.2,917.6,1429.1,917.6C1429.2,917.6,1429.2,917.6,1429.1,917.6 M1429.2,917.6
	C1429.2,917.6,1429.2,917.6,1429.2,917.6C1429.2,917.6,1429.2,917.6,1429.2,917.6 M1429.3,917.6
	C1429.3,917.6,1429.3,917.6,1429.3,917.6C1429.3,917.6,1429.3,917.6,1429.3,917.6 M1429.3,917.6
	C1429.4,917.6,1429.4,917.6,1429.3,917.6C1429.4,917.6,1429.4,917.6,1429.3,917.6 M1429.4,917.6
	C1429.4,917.6,1429.5,917.6,1429.4,917.6C1429.5,917.6,1429.4,917.6,1429.4,917.6 M1429.5,917.6
	C1429.5,917.6,1429.5,917.6,1429.5,917.6C1429.5,917.6,1429.5,917.6,1429.5,917.6 M1429.6,917.6
	C1429.6,917.6,1429.6,917.6,1429.6,917.6C1429.6,917.6,1429.6,917.6,1429.6,917.6 M1429.6,917.6c5.8-0.2,11-2.7,14.7-6.7
	C1440.6,914.9,1435.4,917.4,1429.6,917.6 M365.3,187.7c0-5.7,2.3-10.8,6-14.6C367.6,176.9,365.3,182.1,365.3,187.7"/>
<path class="st14" d="M1429,917.6H386c-11.4,0-20.6-9.2-20.6-20.6V187.7c0-5.7,2.3-10.8,6-14.6l59.8,41.1h-15c-3.7,0-6.7,3-6.7,6.7
	v642.7c0,3.7,3,6.7,6.7,6.7h970l58.3,40.1c-0.1,0.1-0.2,0.2-0.2,0.3c-3.6,4-8.9,6.6-14.7,6.7c0,0,0,0,0,0s0,0,0,0s0,0,0,0
	c0,0,0,0,0,0c0,0,0,0,0,0c0,0,0,0,0,0c0,0,0,0,0,0c0,0,0,0,0,0s0,0,0,0s0,0,0,0c0,0,0,0,0,0c0,0,0,0,0,0c0,0,0,0,0,0c0,0,0,0,0,0
	S1429.1,917.6,1429,917.6C1429.1,917.6,1429.1,917.6,1429,917.6C1429.1,917.6,1429,917.6,1429,917.6"/>
<path class="st15" d="M1386.2,870.5h-970c-3.7,0-6.7-3-6.7-6.7V221c0-3.7,3-6.7,6.7-6.7h15l48.7,33.5v24.7h35.9l0.4,0.2h-36.3v577.4
	h855.2v-14.7L1386.2,870.5"/>
<path class="st16" d="M1335.1,850.1H535V285.6l42,28.9h-26.1v8.7h38.7l33.8,23.3v5.1h7.5l28.7,19.7h-36.2v8.7h48.8l22.4,15.4h-44
	v8.7h56.6l28.7,19.7h-85.3v8.7h97.9l35,24.1h-133v8.7h145.6l538.8,370.2V850.1 M739.1,807.1v8.7h21.3v-8.7H739.1 M666.5,807.1v8.7
	h61.9v-8.7H666.5 M666.5,778.7v8.7h41.8v-8.7H666.5 M990.3,760.1v8.7h26.8v-8.7H990.3 M868.8,760.1v8.7h111.2v-8.7H868.8
	 M811.2,760.1v8.7h46.5v-8.7H811.2 M752.1,760.1v8.7h45.8v-8.7H752.1 M868.8,731.8v8.7h148.3v-8.7H868.8 M752.1,731.8v8.7h105.7
	v-8.7H752.1 M939.1,700v8.7h62.7V700H939.1 M888.2,700v8.7h32V700H888.2 M845.6,700v8.7h30.8V700H845.6 M752.1,700v8.7h79.3V700
	H752.1 M739.1,655.2v8.7h21.3v-8.7H739.1 M666.5,655.2v8.7h61.9v-8.7H666.5 M666.5,626.8v8.7h41.8v-8.7H666.5 M665.7,602.8v8.7
	h110.5v-8.7H665.7 M665.7,570.1v8.7h41.8v-8.7H665.7 M623.5,521.9v8.7h120.7v-8.7H623.5 M623.5,484.8v8.7h21.3v-8.7H623.5
	 M550.9,484.8v8.7h61.9v-8.7H550.9 M550.9,342.9v8.7h61.9v-8.7H550.9 M532.1,850.1h-52.2V272.7h36.3l15.9,10.9V850.1 M492.5,825.6
	v8.7h28.4v-8.7H492.5 M492.5,797.2v8.7h28.4v-8.7H492.5 M492.5,768.8v8.7h28.4v-8.7H492.5 M492.5,740.4v8.7h28.4v-8.7H492.5
	 M492.5,712v8.7h28.4V712H492.5 M492.5,683.6v8.7h28.4v-8.7H492.5 M492.5,655.2v8.7h28.4v-8.7H492.5 M492.5,626.8v8.7h28.4v-8.7
	H492.5 M492.5,598.4v8.7h28.4v-8.7H492.5 M492.5,570.1v8.7h28.4v-8.7H492.5 M492.5,541.6v8.7h28.4v-8.7H492.5 M492.5,513.2v8.7h28.4
	v-8.7H492.5 M492.5,484.8v8.7h28.4v-8.7H492.5 M492.5,456.5v8.7h28.4v-8.7H492.5 M492.5,428.1v8.7h28.4v-8.7H492.5 M492.5,399.7v8.7
	h28.4v-8.7H492.5 M492.5,371.3v8.7h28.4v-8.7H492.5 M492.5,342.9v8.7h28.4v-8.7H492.5 M492.5,314.5v8.7h28.4v-8.7H492.5
	 M492.5,286.1v8.7h28.4v-8.7H492.5"/>
<path class="st7" d="M535,850.1h-2.9V283.6l2.9,2V850.1"/>
<path class="st17" d="M515.8,272.4h-35.9v-24.7L515.8,272.4"/>
<path class="st7" d="M492.5,294.7h28.4v-8.7h-28.4V294.7z"/>
<path class="st7" d="M492.5,323.1h28.4v-8.7h-28.4V323.1z"/>
<path class="st7" d="M492.5,351.5h28.4v-8.7h-28.4V351.5z"/>
<path class="st7" d="M492.5,379.9h28.4v-8.7h-28.4V379.9z"/>
<path class="st7" d="M492.5,408.3h28.4v-8.7h-28.4V408.3z"/>
<path class="st7" d="M492.5,436.7h28.4v-8.7h-28.4V436.7z"/>
<path class="st7" d="M492.5,465.1h28.4v-8.7h-28.4V465.1z"/>
<path class="st7" d="M492.5,493.5h28.4v-8.7h-28.4V493.5z"/>
<path class="st7" d="M492.5,521.9h28.4v-8.7h-28.4V521.9z"/>
<path class="st7" d="M492.5,550.3h28.4v-8.7h-28.4V550.3z"/>
<path class="st7" d="M492.5,578.7h28.4v-8.7h-28.4V578.7z"/>
<path class="st7" d="M492.5,607.1h28.4v-8.7h-28.4V607.1z"/>
<path class="st7" d="M492.5,635.5h28.4v-8.7h-28.4V635.5z"/>
<path class="st7" d="M492.5,663.9h28.4v-8.7h-28.4V663.9z"/>
<path class="st7" d="M492.5,692.3h28.4v-8.7h-28.4V692.3z"/>
<path class="st7" d="M492.5,720.7h28.4V712h-28.4V720.7z"/>
<path class="st7" d="M492.5,749.1h28.4v-8.7h-28.4V749.1z"/>
<path class="st7" d="M492.5,777.5h28.4v-8.7h-28.4V777.5z"/>
<path class="st7" d="M492.5,805.9h28.4v-8.7h-28.4V805.9z"/>
<path class="st7" d="M492.5,834.3h28.4v-8.7h-28.4V834.3z"/>
<path class="st18" d="M665.7,611.5h110.5v-8.7H665.7V611.5z"/>
<path class="st18" d="M665.7,578.7h41.8v-8.7h-41.8V578.7z"/>
<path class="st19" d="M589.6,323.1h-38.7v-8.7H577L589.6,323.1"/>
<path class="st19" d="M550.9,351.5h61.9v-8.7h-61.9V351.5z"/>
<path class="st7" d="M672.3,379.9h-48.8v-8.7h36.2L672.3,379.9"/>
<path class="st7" d="M748.6,432.4h-97.9v-8.7H736L748.6,432.4"/>
<path class="st7" d="M707.3,404h-56.6v-8.7h44L707.3,404"/>
<path class="st7" d="M752.1,708.7h79.3V700h-79.3V708.7z"/>
<path class="st7" d="M845.6,708.7h30.8V700h-30.8V708.7z"/>
<path class="st7" d="M939.1,708.7h62.7V700h-62.7V708.7z"/>
<path class="st7" d="M888.2,708.7h32V700h-32V708.7z"/>
<path class="st20" d="M631,351.5h-7.5v-5.1L631,351.5"/>
<path class="st19" d="M666.5,635.5h41.8v-8.7h-41.8V635.5z"/>
<path class="st19" d="M666.5,663.9h61.9v-8.7h-61.9V663.9z"/>
<path class="st20" d="M739.1,663.9h21.3v-8.7h-21.3V663.9z"/>
<path class="st19" d="M666.5,787.4h41.8v-8.7h-41.8V787.4z"/>
<path class="st19" d="M666.5,815.8h61.9v-8.7h-61.9V815.8z"/>
<path class="st20" d="M739.1,815.8h21.3v-8.7h-21.3V815.8z"/>
<path class="st19" d="M550.9,493.5h61.9v-8.7h-61.9V493.5z"/>
<path class="st20" d="M623.5,493.5h21.3v-8.7h-21.3V493.5z"/>
<path class="st21" d="M623.5,530.6h120.7v-8.7H623.5V530.6z"/>
<path class="st7" d="M796.3,465.1H650.7v-8.7h133L796.3,465.1"/>
<path class="st7" d="M752.1,740.4h105.7v-8.7H752.1V740.4z"/>
<path class="st7" d="M868.8,740.4h148.3v-8.7H868.8V740.4z"/>
<path class="st7" d="M752.1,768.8h45.8v-8.7h-45.8V768.8z"/>
<path class="st7" d="M811.2,768.8h46.5v-8.7h-46.5V768.8z"/>
<path class="st7" d="M990.3,768.8h26.8v-8.7h-26.8V768.8z"/>
<path class="st7" d="M868.8,768.8h111.2v-8.7H868.8V768.8z"/>
<path class="st22" d="M1167.4,637.5h467.1v307.8h-467.1V637.5z"/>
<path class="st7" d="M1640.1,624.2H1166c-9,0-16.3,7.3-16.3,16.3v319.8h506.9V640.6C1656.5,631.5,1649.2,624.2,1640.1,624.2z
	 M1630.8,916.5v21h-455.5V647h455.5V916.5z"/>
<g>
	<defs>
		<rect id="SVGID_5_" x="1146.7" y="622.3" width="512" height="340.3"/>
	</defs>
	<clipPath id="SVGID_6_">
		<use xlink:href="#SVGID_5_"  style="overflow:visible;"/>
	</clipPath>
	<g class="st23">
		<path class="st24" d="M1658.4,962.2h-510.6V640.6c0-10.1,8.2-18.2,18.2-18.2h474.2c10.1,0,18.2,8.2,18.2,18.2L1658.4,962.2
			L1658.4,962.2z M1151.5,958.4h503.1V640.6c0-8-6.5-14.5-14.5-14.5H1166c-8,0-14.5,6.5-14.5,14.5L1151.5,958.4L1151.5,958.4z
			 M1632.7,939.4h-459.3V645.2h459.3V939.4z M1177.2,935.6h451.7V648.9h-451.7V935.6z"/>
	</g>
</g>
<path class="st7" d="M1734.8,1033.5l-78.6-79h-506.3l-78.6,79v9c0,0.9,0.7,1.7,1.7,1.7h2c0.6,3.6,3.8,6.3,7.5,6.3h641.2
	c3.8,0,6.9-2.7,7.5-6.3h2c0.9,0,1.7-0.7,1.7-1.7V1033.5z"/>
<g>
	<defs>
		<rect id="SVGID_7_" x="1069.3" y="952" width="667.7" height="99.8"/>
	</defs>
	<clipPath id="SVGID_8_">
		<use xlink:href="#SVGID_7_"  style="overflow:visible;"/>
	</clipPath>
	<g class="st25">
		<path class="st24" d="M1723.7,1052.3h-641.2c-4.1,0-7.6-2.6-9-6.3h-0.6c-2,0-3.5-1.6-3.5-3.6v-9.8l79.7-80.1H1657l0.6,0.6
			l79.2,79.5v9.8c0,2-1.6,3.5-3.6,3.5h-0.6C1731.3,1049.8,1727.7,1052.3,1723.7,1052.3z M1073.2,1042.3h3.4l0.3,1.6
			c0.5,2.7,2.9,4.7,5.6,4.7h641.2c2.8,0,5.2-2,5.6-4.7l0.3-1.6h3.4v-8l-77.5-77.8h-504.8l-77.5,77.8L1073.2,1042.3z"/>
	</g>
</g>
<path class="st26" d="M1134.2,1002.7h43.9L1209,963h-37.8L1134.2,1002.7z"/>
<path class="st26" d="M1597.2,963l30.9,39.8h43.9L1635,963H1597.2z"/>
<path class="st26" d="M1467.5,1011.6c-0.8-2.9-4.7-5.3-8.8-5.3h-111.4c-4.1,0-8,2.3-8.8,5.3l-2.1,8c-0.9,3.2,2,5.9,6.4,5.9h120.4
	c4.4,0,7.2-2.7,6.4-5.9L1467.5,1011.6z"/>
<path class="st27" d="M1191.1,1002.7h423.9l-29-39.8h-365.8L1191.1,1002.7z"/>
<path class="st24" d="M1071.3,1031.6h663.5v3.8h-663.5V1031.6z"/>
<g>
	<defs>
		<rect id="SVGID_9_" x="1511.7" y="357.3" width="258" height="229.3"/>
	</defs>
	<clipPath id="SVGID_10_">
		<use xlink:href="#SVGID_9_"  style="overflow:visible;"/>
	</clipPath>
	<g class="st28">
		<path class="st29" d="M1723.6,431.6c-2.7-0.9-5.4-1.8-8.3-2.6c0.5-1.9,0.9-3.8,1.3-5.6c6.3-30.4,2.2-54.8-11.8-62.9
			c-13.4-7.7-35.4,0.3-57.6,19.6c-2.1,1.9-4.3,3.8-6.4,5.9c-1.4-1.4-2.8-2.7-4.3-3.9c-23.2-20.6-46.6-29.2-60.6-21.2
			c-13.4,7.7-17.4,30.7-11.7,59.5c0.5,2.8,1.2,5.6,1.9,8.5c-3.3,0.9-6.5,1.9-9.5,3c-27.3,9.5-44.7,24.3-44.7,39.7
			c0,15.9,18.7,31.9,47.1,41.5c2.2,0.8,4.6,1.5,7,2.2c-0.8,3.1-1.5,6.2-2,9.2c-5.4,28.3-1.2,50.7,12.2,58.4
			c13.8,7.9,37-0.2,59.6-19.9c1.8-1.6,3.6-3.2,5.4-4.9c2.3,2.2,4.7,4.3,7,6.3c21.9,18.8,43.5,26.3,56.9,18.6
			c13.8-8,18.3-32.1,12.5-61.4c-0.4-2.2-1-4.5-1.5-6.9c1.6-0.5,3.2-1,4.8-1.5c29.5-9.8,48.7-25.5,48.7-41.6
			C1769.4,456.1,1751.4,441.1,1723.6,431.6z M1717.2,502.8c-1.4,0.5-2.9,0.9-4.3,1.3c-3.3-10.3-7.7-21.2-13-32.5
			c5.1-11,9.4-21.8,12.5-32c2.6,0.8,5.2,1.6,7.7,2.4c23.8,8.2,38.4,20.3,38.4,29.6C1758.4,481.5,1742.7,494.3,1717.2,502.8z
			 M1706.6,523.6c2.6,13,2.9,24.7,1.2,33.9c-1.5,8.2-4.6,13.7-8.4,15.9c-8.1,4.7-25.5-1.4-44.2-17.5c-2.2-1.8-4.3-3.8-6.5-5.9
			c7.2-7.9,14.5-17.1,21.6-27.3c12.4-1.1,24.2-2.9,34.9-5.4C1705.8,519.6,1706.2,521.6,1706.6,523.6z M1599.7,572.6
			c-7.9,2.8-14.2,2.9-18.1,0.7c-8.1-4.7-11.5-22.7-6.9-46.9c0.5-2.8,1.2-5.6,1.9-8.5c10.5,2.3,22.2,4,34.7,5
			c7.1,10,14.6,19.2,22.1,27.2c-1.6,1.6-3.3,3.1-4.9,4.5C1618.5,563.4,1608.5,569.5,1599.7,572.6z M1562.6,502.7
			c-12.6-4.3-22.9-9.8-30-15.9c-6.4-5.4-9.6-10.9-9.6-15.2c0-9.3,14-21.3,37.3-29.4c2.8-1,5.8-1.9,8.9-2.8
			c3.2,10.4,7.4,21.4,12.5,32.4c-5.2,11.2-9.5,22.3-12.7,32.9C1566.7,504.1,1564.6,503.4,1562.6,502.7z M1575,418.2
			c-4.8-24.7-1.6-43.2,6.5-47.9c8.6-5,27.7,2.1,47.7,19.9c1.3,1.1,2.6,2.3,3.9,3.6c-7.5,8-14.9,17.1-21.9,27.1
			c-12.1,1.1-23.7,2.9-34.4,5.3C1576.1,423.4,1575.5,420.8,1575,418.2z M1686.1,445.6c-2.5-4.4-5.2-8.7-7.8-12.8
			c8.2,1,16.1,2.4,23.5,4.1c-2.2,7.1-5,14.5-8.2,22.1C1691.2,454.5,1688.7,450,1686.1,445.6z M1640.8,401.6
			c5.1,5.5,10.2,11.6,15.2,18.2c-5-0.2-10.1-0.4-15.3-0.4c-5.1,0-10.2,0.1-15.2,0.4C1630.5,413.2,1635.6,407.1,1640.8,401.6z
			 M1595.2,445.6c-2.5,4.4-5,8.8-7.3,13.3c-3.2-7.6-5.9-15-8.2-22.2c7.3-1.6,15.2-3,23.3-4C1600.4,436.9,1597.8,441.2,1595.2,445.6z
			 M1603.3,511.2c-8.4-0.9-16.4-2.2-23.7-3.8c2.3-7.3,5.1-14.9,8.3-22.7c2.3,4.4,4.7,8.9,7.3,13.3
			C1597.9,502.5,1600.6,506.9,1603.3,511.2z M1641.1,542.3c-5.2-5.6-10.4-11.8-15.5-18.5c4.9,0.2,10,0.3,15.1,0.3
			c5.2,0,10.4-0.1,15.5-0.3C1651.2,530.5,1646.1,536.7,1641.1,542.3z M1693.6,484.3c3.4,7.8,6.3,15.4,8.7,22.6
			c-7.5,1.7-15.5,3.1-24,4.1c2.7-4.2,5.3-8.6,7.9-13.1C1688.8,493.4,1691.2,488.8,1693.6,484.3z M1676.6,492.4
			c-4,7-8.2,13.6-12.4,19.9c-7.6,0.5-15.5,0.8-23.6,0.8c-8,0-15.8-0.2-23.3-0.7c-4.4-6.3-8.6-13-12.6-19.9c-4-6.9-7.7-13.8-11-20.7
			c3.3-6.9,7-13.8,11-20.7h0c4-6.9,8.2-13.5,12.5-19.8c7.7-0.6,15.5-0.9,23.4-0.9c8,0,15.8,0.3,23.5,0.9c4.3,6.3,8.4,12.9,12.4,19.7
			c4,7,7.7,13.8,11.1,20.6C1684.3,478.5,1680.6,485.5,1676.6,492.4z M1699.3,370c8.6,5,12,24.9,6.6,51.2c-0.3,1.7-0.7,3.4-1.2,5.1
			c-10.7-2.5-22.3-4.3-34.4-5.4c-7.1-10-14.4-19.2-21.8-27.1c2-1.9,4-3.7,5.9-5.4C1673.4,371.8,1691.2,365.3,1699.3,370z
			 M1640.7,448.6c12.7,0,23,10.3,23,22.9c0,12.7-10.3,22.9-23,22.9c-12.7,0-23-10.3-23-22.9C1617.7,458.9,1628,448.6,1640.7,448.6z"
			/>
	</g>
</g>
<g>
	<rect x="1173.4" y="641.4" class="st30" width="461.1" height="298"/>
	<g>
		<rect x="1173.4" y="641.4" class="st31" width="94.3" height="298"/>
		<rect x="1173.4" y="641.4" class="st32" width="94.3" height="48"/>
		<g>
			<rect x="1173.4" y="821" class="st32" width="94.3" height="13.1"/>
			<g>
				<text transform="matrix(1.0317 0 0 1 1205.9873 829.656)" class="st33 st34 st35">SIGN OUT</text>
			</g>
		</g>
		<polygon class="st31" points="1272.7,801.1 1267.4,806.5 1267.4,774.3 1272.7,779.7 		"/>
		<polyline class="st36" points="1269.8,784 1267.6,790.4 1269.8,796.8 		"/>
	</g>
	<rect x="1518.3" y="668.2" class="st7" width="110.5" height="263"/>
	<g>
		<g>
			<path class="st33" d="M1198.4,780.4c-0.3,0.1-0.6,0.2-0.9,0.2c-0.3,0-0.6-0.1-0.9-0.2c-0.9,0.3-1.5,1.2-1.5,2.2v0.1
				c0.6,0.6,1.5,0.9,2.4,0.9c0.9,0,1.8-0.3,2.4-0.9v-0.1C1199.9,781.6,1199.3,780.8,1198.4,780.4z M1197.5,777.3
				c-0.9,0-1.6,0.7-1.6,1.5s0.7,1.5,1.6,1.5c0.9,0,1.6-0.7,1.6-1.5S1198.4,777.3,1197.5,777.3z"/>
			<g>
				<g id="XMLID_33_">
					<g>
						<g>
							<polygon class="st37" points="1200.6,701.6 1200.6,705.5 1198.5,705.5 1198.5,702.8 1196.5,702.8 1196.5,705.5 1194.3,705.5 
								1194.3,701.6 1197.5,698.7 							"/>
						</g>
					</g>
					<g>
						<polyline class="st38" points="1198.5,705.5 1200.6,705.5 1200.6,701.6 1197.5,698.7 1194.3,701.6 1194.3,705.5 1196.5,705.5 
													"/>
						<polyline class="st38" points="1196.5,705.5 1196.5,702.8 1198.5,702.8 1198.5,705.5 						"/>
					</g>
				</g>
			</g>
			<g>
				<rect x="1198.8" y="719.7" class="st33" width="1.1" height="4"/>
				<rect x="1195.1" y="721.4" class="st33" width="1.1" height="2.3"/>
				<rect x="1196.9" y="720.8" class="st33" width="1.1" height="2.9"/>
			</g>
			<g>
				<g>
					<polygon class="st33" points="1201.1,758.7 1193.9,758.7 1197.5,760.7 					"/>
				</g>
				<g>
					<polygon class="st33" points="1197.5,761 1193.7,758.9 1193.7,763.1 1201.2,763.1 1201.2,758.9 					"/>
				</g>
			</g>
			<path class="st33" d="M1194.5,738.5c-0.4,0-0.8,0.3-0.8,0.7v2.9c0,0.4,0.3,0.7,0.8,0.7h3.8l1.2,1.2v-1.2h1c0.4,0,0.8-0.3,0.8-0.7
				v-2.9c0-0.4-0.3-0.7-0.8-0.7H1194.5z"/>
			<text transform="matrix(1.0317 0 0 1 1212.1504 704.9314)" class="st37 st39 st40">Dashboard</text>
			<g>
				<text transform="matrix(1.0317 0 0 1 1212.1504 723.5242)" class="st33 st39 st40">Chart</text>
			</g>
			<g>
				<text transform="matrix(1.0317 0 0 1 1212.1504 743.1072)" class="st33 st39 st40">Form</text>
			</g>
			<g>
				<text transform="matrix(1.0317 0 0 1 1212.1504 762.6921)" class="st33 st39 st40">Email</text>
			</g>
			<g>
				<text transform="matrix(1.0317 0 0 1 1212.1504 782.2761)" class="st33 st39 st40">Profil</text>
			</g>
			<g>
				<text transform="matrix(1.0317 0 0 1 1212.1504 802.0906)" class="st33 st39 st40">Setting</text>
			</g>
			<g>
				<path class="st33" d="M1198.4,800c0-0.3-0.1-0.7-0.3-0.9l0.3-0.2c-0.1-0.2-0.3-0.5-0.5-0.7l-0.2,0.2c-0.2-0.2-0.5-0.4-0.9-0.5
					l0.1-0.3l0,0c-0.2-0.1-0.5-0.1-0.7-0.1c-0.1,0-0.1,0-0.2,0l0,0.3c-0.3,0-0.7,0.1-1,0.3l-0.2-0.3c-0.3,0.1-0.5,0.3-0.7,0.5
					l0.2,0.2c-0.2,0.2-0.4,0.5-0.5,0.9l-0.3-0.1l0,0c-0.1,0.2-0.1,0.5-0.1,0.7c0,0,0,0.1,0,0.1l0.3,0c0,0.3,0.1,0.7,0.3,0.9
					l-0.3,0.2c0.1,0.2,0.3,0.5,0.5,0.7l0.2-0.2c0.2,0.2,0.5,0.4,0.9,0.5l-0.1,0.3l0,0c0.2,0.1,0.5,0.1,0.7,0.1c0.1,0,0.1,0,0.2,0
					l0-0.3c0.3,0,0.7-0.1,1-0.3l0.2,0.3c0.3-0.1,0.5-0.3,0.7-0.5l-0.2-0.2c0.2-0.2,0.4-0.5,0.5-0.9l0.3,0.1l0,0
					c0.1-0.2,0.1-0.5,0.1-0.7c0-0.1,0-0.1,0-0.2L1198.4,800z M1195.6,802L1195.6,802L1195.6,802L1195.6,802z M1197.5,800.4
					c-0.2,0.6-0.7,1-1.3,1c-0.1,0-0.3,0-0.4-0.1c-0.6-0.2-1-0.7-1-1.3c0-0.1,0-0.2,0.1-0.4c0.2-0.6,0.7-1,1.3-1c0.1,0,0.3,0,0.4,0.1
					c0.6,0.2,1,0.7,1,1.3C1197.5,800.2,1197.5,800.3,1197.5,800.4z"/>
				<polygon class="st33" points="1202.5,797.9 1202.5,797.9 1202.5,797.9 				"/>
				<path class="st33" d="M1202.4,799l-0.2,0c0-0.2-0.1-0.3-0.2-0.5l0.2-0.1c-0.1-0.2-0.3-0.5-0.6-0.6l-0.1,0.2
					c-0.1-0.1-0.3-0.2-0.5-0.2l0.1-0.2l0,0c-0.2,0-0.3-0.1-0.5-0.1c-0.1,0-0.2,0-0.3,0l0,0.2c-0.2,0-0.3,0.1-0.5,0.2l-0.1-0.2
					c-0.3,0.1-0.5,0.3-0.6,0.6l0.2,0.1c-0.1,0.1-0.2,0.3-0.2,0.4l-0.2-0.1l0,0c0,0.2-0.1,0.3-0.1,0.5c0,0.1,0,0.2,0,0.3l0.2,0
					c0,0.2,0.1,0.3,0.2,0.5l-0.2,0.1l0,0c0.1,0.2,0.3,0.5,0.6,0.6l0.1-0.2c0.1,0.1,0.3,0.2,0.5,0.2l-0.1,0.2l0,0l0,0
					c0.2,0,0.3,0.1,0.5,0.1c0.1,0,0.2,0,0.4,0l0-0.2c0.2,0,0.3-0.1,0.5-0.2l0.1,0.2c0.2-0.1,0.5-0.3,0.6-0.6l-0.2-0.1
					c0.1-0.1,0.2-0.3,0.2-0.4l0.2,0.1l0,0c0-0.2,0.1-0.3,0.1-0.5C1202.4,799.2,1202.4,799.1,1202.4,799z M1200.6,800.4
					c-0.1,0-0.2,0-0.3,0c-0.5-0.1-0.8-0.6-0.8-1c0-0.1,0-0.2,0-0.3c0.1-0.5,0.6-0.8,1.1-0.8c0.1,0,0.2,0,0.3,0
					c0.5,0.1,0.8,0.6,0.8,1c0,0.1,0,0.2,0,0.3C1201.5,800.1,1201.1,800.4,1200.6,800.4z"/>
			</g>
		</g>
		<g>
			<ellipse class="st37" cx="1244.2" cy="721.8" rx="3.4" ry="3.3"/>
			<text transform="matrix(1.0317 0 0 1 1243.0723 722.8425)" class="st7 st34 st41">2</text>
		</g>
		<g>
			<ellipse class="st37" cx="1244.2" cy="779.9" rx="3.4" ry="3.3"/>
			<text transform="matrix(1.0317 0 0 1 1243.0723 780.9451)" class="st7 st34 st41">2</text>
		</g>
	</g>
	<g>
		<text transform="matrix(1.0317 0 0 1 1215.5596 666.5681)"><tspan x="0" y="0" class="st33 st42 st43">COMPANY</tspan><tspan x="0" y="8" class="st33 st42 st43">LOGO</tspan></text>
		<g>
			<g>
				<path class="st37" d="M1211.5,676h-16.3v-15.8h16.3V676z M1197.1,674.2h12.6V662h-12.6V674.2z"/>
			</g>
		</g>
		<g>
			<g>
				<path class="st44" d="M1206.8,671.5h-7v-6.8h7V671.5z M1201.7,669.7h3.2v-3.1h-3.2V669.7z"/>
			</g>
		</g>
	</g>
	<g>
		<g>
			<g>
				<g>
					<polygon class="st33" points="1287.3,654.4 1287.3,658.3 1285.1,658.3 1285.1,655.6 1283.2,655.6 1283.2,658.3 1281,658.3 
						1281,654.4 1284.2,651.6 					"/>
				</g>
				<text transform="matrix(1.0317 0 0 1 1294.3369 657.7537)" class="st33 st39 st40">Dashboard</text>
			</g>
		</g>
		<rect x="1348.6" y="649.2" class="st7" width="279.8" height="14.9"/>
		<g>
			<g>
				<text transform="matrix(1.0317 0 0 1 1363.5508 658.5671)" class="st33 st45 st46">Search</text>
				<g>
					<g>
						<path class="st33" d="M1355.8,653.9c-0.7,0.9-0.7,2.2,0,3.1c0.8,1,2.3,1.2,3.3,0.5l1.6,1.6c0.1,0.1,0.2,0.1,0.2,0l0.5-0.4
							c0.1-0.1,0.1-0.2,0-0.2l-1.6-1.6c0.7-0.9,0.5-2.2-0.3-3.1C1358.5,652.7,1356.7,652.7,1355.8,653.9z M1359,656.6
							c-0.7,0.7-1.8,0.7-2.5,0c-0.7-0.7-0.7-1.8,0-2.4c0.7-0.7,1.8-0.7,2.5,0C1359.7,654.9,1359.7,656,1359,656.6z"/>
					</g>
				</g>
			</g>
		</g>
	</g>
	<g>
		<rect x="1274.2" y="669.4" class="st7" width="238.3" height="65.2"/>
		<g>
			<line class="st47" x1="1293.9" y1="678.8" x2="1496.5" y2="678.8"/>
			<line class="st47" x1="1293.9" y1="690.1" x2="1496.5" y2="690.1"/>
			<line class="st47" x1="1293.9" y1="701.4" x2="1496.5" y2="701.4"/>
			<line class="st47" x1="1293.9" y1="712.8" x2="1496.5" y2="712.8"/>
			<line class="st47" x1="1293.9" y1="724.1" x2="1496.5" y2="724.1"/>
		</g>
		<g>
			<text transform="matrix(1.0317 0 0 1 1284.2549 725.0242)" class="st33 st34 st48">100</text>
		</g>
		<g>
			<text transform="matrix(1.0317 0 0 1 1284.2549 713.7009)" class="st33 st34 st48">200</text>
		</g>
		<g>
			<text transform="matrix(1.0317 0 0 1 1284.2549 702.4519)" class="st33 st34 st48">300</text>
		</g>
		<g>
			<text transform="matrix(1.0317 0 0 1 1284.2549 691.2791)" class="st33 st34 st48">400</text>
		</g>
		<g>
			<text transform="matrix(1.0317 0 0 1 1284.2549 680.1804)" class="st33 st34 st48">500</text>
		</g>
		<g>
			<linearGradient id="SVGID_11_" gradientUnits="userSpaceOnUse" x1="1293.7751" y1="702.9971" x2="1496.8319" y2="702.9971">
				<stop  offset="0" style="stop-color:#FCAB10"/>
				<stop  offset="0.5206" style="stop-color:#F8333C"/>
				<stop  offset="1" style="stop-color:#2B9EB3"/>
			</linearGradient>
			<path class="st49" d="M1294.4,711c0,0,7.4,5.5,16.8,5.5c9.4,0,21.5-11.7,41.4-11.7c19.9,0,29.7,8.5,49,8.5
				c19.3,0,34.6-23.8,54.5-23.8c17.6,0,20.8,7.3,40.7,5"/>
			<path d="M1354.1,704.5c0,0.9-0.8,1.7-1.7,1.7c-1,0-1.7-0.8-1.7-1.7c0-0.9,0.8-1.7,1.7-1.7
				C1353.3,702.8,1354.1,703.6,1354.1,704.5z"/>
			<path d="M1401.6,713.1c0,0.9-0.8,1.7-1.7,1.7c-1,0-1.7-0.8-1.7-1.7s0.8-1.7,1.7-1.7C1400.8,711.4,1401.6,712.1,1401.6,713.1z"/>
			<path d="M1457.8,689.5c0,0.9-0.8,1.7-1.7,1.7s-1.7-0.8-1.7-1.7c0-0.9,0.8-1.7,1.7-1.7S1457.8,688.6,1457.8,689.5z"/>
			<g>
				<rect x="1344.9" y="690.2" class="st44" width="14.4" height="6.9"/>
				<polygon class="st44" points="1352.2,698.5 1350.1,696.7 1354.3,696.7 				"/>
			</g>
			<g>
				<rect x="1392.3" y="698.9" class="st50" width="14.4" height="6.9"/>
				<polygon class="st50" points="1399.5,707.1 1397.4,705.3 1401.6,705.3 				"/>
			</g>
			<g>
				<rect x="1448.7" y="677.3" class="st51" width="14.4" height="6.9"/>
				<polygon class="st51" points="1455.9,685.6 1453.8,683.7 1458,683.7 				"/>
			</g>
			<text transform="matrix(1.0317 0 0 1 1348.6602 694.7947)" class="st7 st34 st52">270</text>
			<text transform="matrix(1.0317 0 0 1 1395.7998 703.7341)" class="st7 st34 st52">200</text>
			<text transform="matrix(1.0317 0 0 1 1452.417 682.0818)" class="st7 st34 st52">400</text>
		</g>
	</g>
	<g>
		<rect x="1274.2" y="739.2" class="st7" width="75.6" height="73.3"/>
		<g>
			<text transform="matrix(1.0317 0 0 1 1295.1963 749.032)" class="st53 st45 st40">Lore Ipsum</text>
		</g>
		<g>
			<path class="st54" d="M1312,763.4c7,0,12.8,5.6,12.8,12.4s-5.7,12.4-12.8,12.4c-7,0-12.8-5.6-12.8-12.4S1305,763.4,1312,763.4
				 M1312,757.4c-10.5,0-19,8.2-19,18.4s8.5,18.4,19,18.4s19-8.2,19-18.4S1322.5,757.4,1312,757.4L1312,757.4z"/>
			<rect x="1290.6" y="800.1" class="st37" width="42.9" height="6.9"/>
			<text transform="matrix(1.0317 0 0 1 1298.0498 805.0964)" class="st7 st45 st55">LORE IPSUM</text>
			<path class="st37" d="M1312,757.4v6c7,0,12.8,5.5,12.8,12.4s-5.7,12.4-12.8,12.4c-1.8,0-3.6-0.4-5.2-1.1l-2.2,5.6
				c2.3,0.9,4.8,1.4,7.4,1.4c10.5,0,19-8.2,19-18.4C1331,765.7,1322.5,757.4,1312,757.4z"/>
			<g>
				<text transform="matrix(1.0317 0 0 1 1304.2373 778.4949)" class="st56 st34 st57">65%</text>
			</g>
		</g>
		<line class="st58" x1="1288.8" y1="753.5" x2="1335.3" y2="753.5"/>
	</g>
	<g>
		<rect x="1355.4" y="739.2" class="st7" width="75.6" height="73.3"/>
		<g>
			<text transform="matrix(1.0317 0 0 1 1376.3555 749.032)" class="st53 st45 st40">Lore Ipsum</text>
		</g>
		<g>
			<rect x="1371.8" y="800.1" class="st51" width="42.9" height="6.9"/>
			<text transform="matrix(1.0317 0 0 1 1379.209 805.0964)" class="st7 st45 st55">LORE IPSUM</text>
			<g>
				<path class="st30" d="M1368.7,792.6h50.6c2.2,0,4-1.8,4-4v-27.5c0-2.2-1.8-4-4-4h-50.6c-2.2,0-4,1.8-4,4v27.5
					C1364.8,790.9,1366.6,792.6,1368.7,792.6z"/>
				<g>
					<g>
						<rect x="1416.4" y="760.6" class="st59" width="0.6" height="28.7"/>
					</g>
					<g>
						<rect x="1408.9" y="760.6" class="st59" width="0.6" height="28.7"/>
					</g>
					<g>
						<rect x="1401.3" y="760.6" class="st59" width="0.6" height="28.7"/>
					</g>
					<g>
						<rect x="1393.8" y="760.6" class="st59" width="0.6" height="28.7"/>
					</g>
					<g>
						<rect x="1386.2" y="760.6" class="st59" width="0.6" height="28.7"/>
					</g>
					<g>
						<rect x="1371.1" y="760.6" class="st59" width="0.6" height="28.7"/>
					</g>
					<g>
						<rect x="1378.7" y="760.6" class="st59" width="0.6" height="28.7"/>
					</g>
				</g>
				<g>
					<g>
						<path class="st51" d="M1371.4,784c-0.1,0-0.3-0.1-0.4-0.2c-0.2-0.2-0.2-0.6,0-0.8l7.7-7.2l7.5-1.8l7.7-7.4l7.7,3l7.3-3.6
							l7.5-4c0.3-0.1,0.6,0,0.8,0.2c0.1,0.3,0,0.6-0.2,0.7l-7.5,4l-7.8,3.8l-7.4-2.9l-7.4,7.1l-7.6,1.8l-7.4,7
							C1371.7,784,1371.6,784,1371.4,784z"/>
					</g>
					<g>
						<rect x="1369.9" y="782" class="st44" width="3" height="2.9"/>
						<rect x="1377.5" y="774.9" class="st44" width="3" height="2.9"/>
						<rect x="1385" y="773.1" class="st44" width="3" height="2.9"/>
						<rect x="1392.6" y="765.8" class="st44" width="3" height="2.9"/>
						<rect x="1400.1" y="768.8" class="st44" width="3" height="2.9"/>
						<rect x="1407.7" y="765.1" class="st44" width="3" height="2.9"/>
						<rect x="1415.2" y="761.1" class="st44" width="3" height="2.9"/>
					</g>
				</g>
			</g>
		</g>
		<line class="st58" x1="1370" y1="753.5" x2="1416.4" y2="753.5"/>
	</g>
	<g>
		<rect x="1436.6" y="739.1" class="st7" width="75.6" height="73.3"/>
		<g>
			<rect x="1452.9" y="800.1" class="st44" width="42.9" height="6.9"/>
			<text transform="matrix(1.0317 0 0 1 1460.3701 805.0964)" class="st7 st45 st55">LORE IPSUM</text>
			<g>
				<path class="st33" d="M1496.4,790.2l6.1,0l0-0.1L1496.4,790.2L1496.4,790.2l-6.1-0.1h-0.1h-6.1h-0.1h-6.1h-0.1h-6.1h-0.1h-6.1
					h-0.1h-6.1h-0.1h-6.1h-0.1h-6.1v-5.8v-0.1v-5.8v-0.1v-5.8v-0.1v-5.8v-0.1v-5.8h0.2v-0.1h-0.2v-0.2h-0.1v6.1h-1.7v0.1h1.7v5.8
					h-1.7v0.1h1.7v5.8h-1.7v0.1h1.7v5.8h-1.7v0.1h1.7v5.8h0v0h6.1v1.5h0.1v-1.5h6.1 M1484.1,790.2h6.1v1.5h0.1v-1.5h6.1
					 M1471.8,790.2h6.1v1.5h0.1v-1.5h6.1 M1459.5,790.2h6.1v1.5h0.1v-1.5h6.1 M1459.4,791.7L1459.4,791.7"/>
				<path class="st33" d="M1444.8,789.7c-0.2,0-0.3,0.1-0.3,0.4c0,0.2,0.1,0.4,0.3,0.4s0.3-0.1,0.3-0.4S1445,789.7,1444.8,789.7z
					 M1444.8,790.4c-0.1,0-0.1-0.1-0.1-0.3c0-0.2,0-0.3,0.1-0.3c0.1,0,0.1,0.1,0.1,0.3C1445,790.3,1444.9,790.4,1444.8,790.4z"/>
				<polygon class="st33" points="1444,784.1 1444.1,784.1 1444.3,784 1444.3,784.7 1444.4,784.7 1444.4,783.9 1444.3,783.9 				"/>
				<path class="st33" d="M1444.8,783.9c-0.2,0-0.3,0.1-0.3,0.4c0,0.2,0.1,0.4,0.3,0.4s0.3-0.1,0.3-0.4
					C1445.1,784.1,1445,783.9,1444.8,783.9z M1444.8,784.6c-0.1,0-0.1-0.1-0.1-0.3c0-0.2,0-0.3,0.1-0.3c0.1,0,0.1,0.1,0.1,0.3
					C1445,784.5,1444.9,784.6,1444.8,784.6z"/>
				<polygon class="st33" points="1453.1,792.3 1453.1,792.3 1453.3,792.2 1453.3,792.9 1453.4,792.9 1453.4,792.1 1453.3,792.1 
									"/>
				<path class="st33" d="M1444.4,778.3c0-0.1-0.1-0.2-0.2-0.2c-0.1,0-0.2,0-0.2,0.1l0.1,0.1c0.1-0.1,0.1-0.1,0.2-0.1
					c0.1,0,0.1,0,0.1,0.1c0,0.1-0.1,0.2-0.3,0.5v0.1h0.5l0-0.1h-0.3C1444.3,778.5,1444.4,778.4,1444.4,778.3z"/>
				<path class="st33" d="M1444.8,778.1c-0.2,0-0.3,0.1-0.3,0.4c0,0.3,0.1,0.4,0.3,0.4s0.3-0.1,0.3-0.4
					C1445.1,778.2,1445,778.1,1444.8,778.1z M1444.8,778.8c-0.1,0-0.1-0.1-0.1-0.3c0-0.2,0-0.3,0.1-0.3c0.1,0,0.1,0.1,0.1,0.3
					C1445,778.7,1444.9,778.8,1444.8,778.8z"/>
				<path class="st33" d="M1465.8,792.3c0-0.1-0.1-0.2-0.2-0.2c-0.1,0-0.2,0-0.2,0.1l0.1,0.1c0.1-0.1,0.1-0.1,0.2-0.1
					c0.1,0,0.1,0,0.1,0.1c0,0.1-0.1,0.2-0.3,0.5v0.1h0.5l0-0.1h-0.3C1465.7,792.5,1465.8,792.4,1465.8,792.3z"/>
				<path class="st33" d="M1444.2,772.8c-0.1,0-0.1,0-0.2-0.1l-0.1,0.1C1444,772.9,1444.1,772.9,1444.2,772.8c0.2,0.1,0.3,0,0.3-0.1
					c0-0.1-0.1-0.2-0.2-0.2c0.1,0,0.1-0.1,0.1-0.2c0-0.1-0.1-0.2-0.2-0.2c-0.1,0-0.2,0-0.2,0.1l0.1,0.1c0.1,0,0.1-0.1,0.2-0.1
					c0.1,0,0.1,0,0.1,0.1c0,0.1-0.1,0.1-0.1,0.1h0l0,0.1h0.1c0.1,0,0.2,0,0.2,0.1C1444.3,772.8,1444.3,772.8,1444.2,772.8z"/>
				<path class="st33" d="M1444.8,772.2c-0.2,0-0.3,0.1-0.3,0.4c0,0.2,0.1,0.4,0.3,0.4s0.3-0.1,0.3-0.4
					C1445.1,772.3,1445,772.2,1444.8,772.2z M1444.8,772.8c-0.1,0-0.1-0.1-0.1-0.3c0-0.2,0-0.3,0.1-0.3c0.1,0,0.1,0.1,0.1,0.3
					C1445,772.7,1444.9,772.8,1444.8,772.8z"/>
				<path class="st33" d="M1478,792.5c0.1,0,0.1-0.1,0.1-0.2c0-0.1-0.1-0.2-0.2-0.2c-0.1,0-0.2,0-0.2,0.1l0.1,0.1
					c0.1,0,0.1-0.1,0.2-0.1c0.1,0,0.1,0,0.1,0.1C1478,792.4,1478,792.4,1478,792.5l-0.1,0l0,0.1L1478,792.5c0,0,0.1,0.1,0.1,0.2
					c0,0.1-0.1,0.1-0.2,0.1c-0.1,0-0.1,0-0.2-0.1l-0.1,0.1c0.1,0.1,0.1,0.1,0.2,0.1c0.2,0,0.3-0.1,0.3-0.2
					C1478.2,792.5,1478.1,792.5,1478,792.5z"/>
				<polygon class="st33" points="1444.4,766.5 1444.3,766.5 1444.3,766.7 1444.1,766.7 1444.3,766.2 1444.2,766.2 1443.9,766.7 
					1443.9,766.8 1444.3,766.8 1444.3,766.9 1444.4,766.9 1444.4,766.8 1444.5,766.8 1444.5,766.7 1444.4,766.7 				"/>
				<path class="st33" d="M1444.8,766.2c-0.2,0-0.3,0.1-0.3,0.4c0,0.2,0.1,0.4,0.3,0.4s0.3-0.1,0.3-0.4
					C1445.1,766.3,1445,766.2,1444.8,766.2z M1444.8,766.9c-0.1,0-0.1-0.1-0.1-0.3c0-0.2,0-0.3,0.1-0.3c0.1,0,0.1,0.1,0.1,0.3
					C1445,766.8,1444.9,766.9,1444.8,766.9z"/>
				<polygon class="st33" points="1490.3,792.4 1490.2,792.4 1490.2,792.6 1490,792.6 1490.2,792.1 1490.1,792.1 1489.9,792.6 
					1489.9,792.7 1490.2,792.7 1490.2,792.9 1490.3,792.9 1490.3,792.7 1490.4,792.7 1490.4,792.6 1490.3,792.6 				"/>
			</g>
			<g>
				<rect x="1450.2" y="780.3" class="st44" width="6.8" height="9.7"/>
				<rect x="1462.3" y="775.3" class="st37" width="6.8" height="14.7"/>
				<rect x="1474.7" y="763.4" class="st51" width="6.8" height="26.6"/>
				<rect x="1487" y="768.9" class="st50" width="6.8" height="21.1"/>
			</g>
		</g>
		<g>
			<g>
				<text transform="matrix(1.0317 0 0 1 1457.5156 749.032)" class="st53 st45 st40">Lore Ipsum</text>
			</g>
			<line class="st58" x1="1451.2" y1="753.5" x2="1497.6" y2="753.5"/>
		</g>
	</g>
	<g>
		<rect x="1274.2" y="818" class="st7" width="116.3" height="114.5"/>
		<g>
			<g>
				<text transform="matrix(1.0317 0 0 1 1313.3818 830.7664)" class="st53 st45 st40">Lorem ipsum</text>
			</g>
			<line class="st60" x1="1289" y1="842.6" x2="1375.7" y2="842.6"/>
			<g>
				<text transform="matrix(1.0317 0 0 1 1314.3818 836.4392)" class="st33 st39 st61">consectetuer adipiscing elit</text>
			</g>
		</g>
		<g>
			<g>
				<g>
					<text transform="matrix(1.0317 0 0 1 1285.7646 855.5388)" class="st53 st39 st62">Lorem ipsum</text>
				</g>
				<g>
					<path class="st54" d="M1378.2,861.1h-91.6c-0.6,0-1.1-0.5-1.1-1.1l0,0c0-0.6,0.5-1.1,1.1-1.1h91.6c0.6,0,1.1,0.5,1.1,1.1l0,0
						C1379.3,860.6,1378.8,861.1,1378.2,861.1z"/>
					<path class="st51" d="M1344.2,861.1h-57.6c-0.6,0-1.1-0.5-1.1-1.1l0,0c0-0.6,0.5-1.1,1.1-1.1h57.6c0.6,0,1.1,0.5,1.1,1.1l0,0
						C1345.3,860.6,1344.8,861.1,1344.2,861.1z"/>
				</g>
			</g>
			<g>
				<g>
					<text transform="matrix(1.0317 0 0 1 1285.7646 871.4294)" class="st53 st39 st62">Lorem ipsum</text>
				</g>
				<g>
					<path class="st54" d="M1378.2,877h-91.6c-0.6,0-1.1-0.5-1.1-1.1l0,0c0-0.6,0.5-1.1,1.1-1.1h91.6c0.6,0,1.1,0.5,1.1,1.1l0,0
						C1379.3,876.5,1378.8,877,1378.2,877z"/>
					<path class="st37" d="M1332.3,877h-45.7c-0.6,0-1.1-0.5-1.1-1.1l0,0c0-0.6,0.5-1.1,1.1-1.1h45.7c0.6,0,1.1,0.5,1.1,1.1l0,0
						C1333.4,876.5,1332.9,877,1332.3,877z"/>
				</g>
			</g>
			<g>
				<g>
					<text transform="matrix(1.0317 0 0 1 1285.7646 887.321)" class="st53 st39 st62">Lorem ipsum</text>
				</g>
				<g>
					<path class="st54" d="M1378.4,892.9h-92c-0.5,0-0.9-0.4-0.9-0.9v-0.3c0-0.5,0.4-0.9,0.9-0.9h92c0.5,0,0.9,0.4,0.9,0.9v0.3
						C1379.3,892.5,1378.9,892.9,1378.4,892.9z"/>
					<path class="st44" d="M1359.2,892.9h-72.8c-0.5,0-0.9-0.4-0.9-0.9v-0.3c0-0.5,0.4-0.9,0.9-0.9h72.8c0.5,0,0.9,0.4,0.9,0.9v0.3
						C1360.1,892.5,1359.7,892.9,1359.2,892.9z"/>
				</g>
			</g>
			<g>
				<g>
					<text transform="matrix(1.0317 0 0 1 1285.7646 903.2146)" class="st53 st39 st62">Lorem ipsum</text>
				</g>
				<g>
					<path class="st54" d="M1378.2,908.8h-91.6c-0.6,0-1.1-0.5-1.1-1.1l0,0c0-0.6,0.5-1.1,1.1-1.1h91.6c0.6,0,1.1,0.5,1.1,1.1l0,0
						C1379.3,908.3,1378.8,908.8,1378.2,908.8z"/>
					<path class="st50" d="M1336.8,908.8h-50.3c-0.6,0-1.1-0.5-1.1-1.1l0,0c0-0.6,0.5-1.1,1.1-1.1h50.3c0.6,0,1.1,0.5,1.1,1.1l0,0
						C1338,908.3,1337.5,908.8,1336.8,908.8z"/>
				</g>
			</g>
		</g>
	</g>
	<g>
		<rect x="1397.3" y="818" class="st7" width="115.5" height="114.5"/>
		<g>
			<g>
				<text transform="matrix(1.0317 0 0 1 1435.0312 830.7664)" class="st53 st45 st40">Dolor Sit Amet</text>
			</g>
			<line class="st60" x1="1411.7" y1="842.6" x2="1498.4" y2="842.6"/>
			<g>
				<text transform="matrix(1.0317 0 0 1 1437.0459 836.4392)" class="st33 st39 st61">consectetuer adipiscing elit</text>
			</g>
		</g>
		<rect x="1454.5" y="851.4" class="st54" width="1" height="62.7"/>
		<g>
			<path class="st37" d="M1481.8,860.3H1460c-1.5,0-2.7-1.2-2.7-2.6l0,0c0-1.4,1.2-2.6,2.7-2.6h21.8c1.5,0,2.7,1.2,2.7,2.6l0,0
				C1484.5,859.2,1483.3,860.3,1481.8,860.3z"/>
			<path class="st44" d="M1493.4,870.3H1460c-1.5,0-2.7-1.2-2.7-2.6l0,0c0-1.4,1.2-2.6,2.7-2.6h33.4c1.5,0,2.7,1.2,2.7,2.6l0,0
				C1496,869.2,1494.8,870.3,1493.4,870.3z"/>
			<path class="st50" d="M1500.9,880.3H1460c-1.5,0-2.7-1.2-2.7-2.6l0,0c0-1.4,1.2-2.6,2.7-2.6h40.9c1.5,0,2.7,1.2,2.7,2.6l0,0
				C1503.6,879.2,1502.4,880.3,1500.9,880.3z"/>
			<path class="st63" d="M1486.4,890.4H1460c-1.5,0-2.7-1.2-2.7-2.6l0,0c0-1.4,1.2-2.6,2.7-2.6h26.4c1.5,0,2.7,1.2,2.7,2.6l0,0
				C1489.1,889.2,1487.9,890.4,1486.4,890.4z"/>
			<path class="st51" d="M1496.1,900.4H1460c-1.5,0-2.7-1.2-2.7-2.6l0,0c0-1.4,1.2-2.6,2.7-2.6h36.1c1.5,0,2.7,1.2,2.7,2.6l0,0
				C1498.8,899.2,1497.6,900.4,1496.1,900.4z"/>
			<path class="st64" d="M1474,910.4h-14c-1.5,0-2.7-1.2-2.7-2.6l0,0c0-1.4,1.2-2.6,2.7-2.6h14c1.5,0,2.7,1.2,2.7,2.6l0,0
				C1476.7,909.2,1475.5,910.4,1474,910.4z"/>
		</g>
		<g>
			<text transform="matrix(1.0317 0 0 1 1427.8574 858.8855)" class="st53 st39 st62">Lorem ipsum</text>
		</g>
		<g>
			<text transform="matrix(1.0317 0 0 1 1427.8574 868.949)" class="st53 st39 st62">Lorem ipsum</text>
		</g>
		<g>
			<text transform="matrix(1.0317 0 0 1 1427.8574 879.0095)" class="st53 st39 st62">Lorem ipsum</text>
		</g>
		<g>
			<text transform="matrix(1.0317 0 0 1 1427.8574 889.0701)" class="st53 st39 st62">Lorem ipsum</text>
		</g>
		<g>
			<text transform="matrix(1.0317 0 0 1 1427.8574 899.1335)" class="st53 st39 st62">Lorem ipsum</text>
		</g>
		<g>
			<text transform="matrix(1.0317 0 0 1 1427.8574 909.1941)" class="st53 st39 st62">Lorem ipsum</text>
		</g>
	</g>
	<text transform="matrix(1.0317 0 0 1 1496.916 878.5759)" class="st7 st34 st65">90%</text>
	<text transform="matrix(1.0317 0 0 1 1483.082 888.5574)" class="st7 st34 st65">70%</text>
	<text transform="matrix(1.0317 0 0 1 1492.6123 898.5398)" class="st7 st34 st65">85%</text>
	<text transform="matrix(1.0317 0 0 1 1470.6318 908.5955)" class="st7 st34 st65">90%</text>
	<text transform="matrix(1.0317 0 0 1 1489.6904 868.5447)" class="st7 st34 st65">80%</text>
	<text transform="matrix(1.0317 0 0 1 1478.3174 858.4138)" class="st7 st34 st65">60%</text>
	<g>
		<g>
			<g>
				<text transform="matrix(1.0317 0 0 1 1557.416 686.4578)" class="st53 st45 st40">Lore Ipsum</text>
			</g>
			<line class="st58" x1="1551.1" y1="690.9" x2="1597.5" y2="690.9"/>
		</g>
		<g>
			<g>
				<text transform="matrix(1.0317 0 0 1 1534.8418 700.3669)" class="st53 st39 st62">Lorem ipsum</text>
			</g>
			<g>
				<text transform="matrix(1.0317 0 0 1 1534.8418 710.4304)" class="st53 st39 st62">consectetuer</text>
			</g>
			<g>
				<text transform="matrix(1.0317 0 0 1 1534.8418 720.489)" class="st53 st39 st62">adipiscing elit</text>
			</g>
			<g>
				<text transform="matrix(1.0317 0 0 1 1534.8418 730.5515)" class="st53 st39 st62">sed diam nonummy nibh</text>
			</g>
			<g>
				<text transform="matrix(1.0317 0 0 1 1534.8418 740.613)" class="st53 st39 st62">euismod tincidunt ut</text>
			</g>
			<g>
				<text transform="matrix(1.0317 0 0 1 1534.8418 750.6736)" class="st53 st39 st62">Duis autem vel</text>
			</g>
			<path class="st44" d="M1610.8,702.7h-6.4c-1.7,0-3.1-1.3-3.1-3l0,0c0-1.6,1.4-3,3.1-3h6.4c1.7,0,3.1,1.3,3.1,3l0,0
				C1613.8,701.4,1612.5,702.7,1610.8,702.7z"/>
			<path class="st44" d="M1610.8,712.6h-6.4c-1.7,0-3.1-1.3-3.1-3l0,0c0-1.6,1.4-3,3.1-3h6.4c1.7,0,3.1,1.3,3.1,3l0,0
				C1613.8,711.3,1612.5,712.6,1610.8,712.6z"/>
			<path class="st44" d="M1610.8,722.6h-6.4c-1.7,0-3.1-1.3-3.1-3l0,0c0-1.6,1.4-3,3.1-3h6.4c1.7,0,3.1,1.3,3.1,3l0,0
				C1613.8,721.2,1612.5,722.6,1610.8,722.6z"/>
			<path class="st44" d="M1610.8,752.3h-6.4c-1.7,0-3.1-1.3-3.1-3l0,0c0-1.6,1.4-3,3.1-3h6.4c1.7,0,3.1,1.3,3.1,3l0,0
				C1613.8,750.9,1612.5,752.3,1610.8,752.3z"/>
			<path class="st44" d="M1610.8,742.4h-6.4c-1.7,0-3.1-1.3-3.1-3l0,0c0-1.6,1.4-3,3.1-3h6.4c1.7,0,3.1,1.3,3.1,3l0,0
				C1613.8,741,1612.5,742.4,1610.8,742.4z"/>
			<path class="st44" d="M1610.8,732.5h-6.4c-1.7,0-3.1-1.3-3.1-3l0,0c0-1.6,1.4-3,3.1-3h6.4c1.7,0,3.1,1.3,3.1,3l0,0
				C1613.8,731.1,1612.5,732.5,1610.8,732.5z"/>
			<text transform="matrix(1.0317 0 0 1 1604.4131 700.7908)" class="st7 st34 st62">634</text>
			<text transform="matrix(1.0317 0 0 1 1604.4131 750.6511)" class="st7 st34 st62">434</text>
			<text transform="matrix(1.0317 0 0 1 1604.4131 740.6794)" class="st7 st34 st62">334</text>
			<text transform="matrix(1.0317 0 0 1 1606.1045 730.7078)" class="st7 st34 st62">90</text>
			<text transform="matrix(1.0317 0 0 1 1604.4131 720.7351)" class="st7 st34 st62">123</text>
			<text transform="matrix(1.0317 0 0 1 1604.4131 710.7625)" class="st7 st34 st62">541</text>
		</g>
	</g>
	<g>
		<g>
			<g>
				<text transform="matrix(1.0317 0 0 1 1557.416 771.8738)" class="st53 st45 st40">Lore Ipsum</text>
			</g>
			<line class="st58" x1="1551.1" y1="776.3" x2="1597.5" y2="776.3"/>
		</g>
		<g>
			<g>
				<g>
					<g>
						<rect x="1541.9" y="788.4" class="st51" width="2.2" height="45.5"/>
					</g>
					<g>
						<rect x="1541.9" y="803.2" class="st64" width="2.2" height="30.7"/>
					</g>
					<g>
						<rect x="1546.2" y="800.8" class="st37" width="2.2" height="33.1"/>
					</g>
					<g>
						<rect x="1546.2" y="812.7" class="st66" width="2.2" height="21.2"/>
					</g>
					<g>
						<rect x="1550.5" y="807.1" class="st44" width="2.2" height="26.9"/>
					</g>
					<g>
						<rect x="1550.5" y="817.7" class="st67" width="2.2" height="16.2"/>
					</g>
				</g>
			</g>
			<g>
				<g>
					<g>
						<rect x="1563.3" y="794.5" class="st51" width="2.2" height="39.4"/>
					</g>
					<g>
						<rect x="1563.3" y="807.3" class="st64" width="2.2" height="26.6"/>
					</g>
					<g>
						<rect x="1567.6" y="805.2" class="st37" width="2.2" height="28.7"/>
					</g>
					<g>
						<rect x="1567.6" y="815.5" class="st66" width="2.2" height="18.4"/>
					</g>
					<g>
						<rect x="1571.9" y="800.1" class="st44" width="2.2" height="33.8"/>
					</g>
					<g>
						<rect x="1571.9" y="813.5" class="st67" width="2.2" height="20.4"/>
					</g>
				</g>
			</g>
			<g>
				<g>
					<g>
						<rect x="1584.5" y="788.4" class="st51" width="2.2" height="45.5"/>
					</g>
					<g>
						<rect x="1584.5" y="803.2" class="st64" width="2.2" height="30.7"/>
					</g>
					<g>
						<rect x="1588.8" y="800.8" class="st37" width="2.2" height="33.1"/>
					</g>
					<g>
						<rect x="1588.8" y="812.7" class="st66" width="2.2" height="21.2"/>
					</g>
					<g>
						<rect x="1593.1" y="807.1" class="st44" width="2.2" height="26.9"/>
					</g>
					<g>
						<rect x="1593.1" y="817.7" class="st67" width="2.2" height="16.2"/>
					</g>
				</g>
			</g>
			<g>
				<g>
					<g>
						<rect x="1605.7" y="812.7" class="st51" width="2.2" height="21.2"/>
					</g>
					<g>
						<rect x="1605.7" y="819.6" class="st64" width="2.2" height="14.3"/>
					</g>
					<g>
						<rect x="1610" y="807.3" class="st37" width="2.2" height="26.6"/>
					</g>
					<g>
						<rect x="1610" y="816.9" class="st66" width="2.2" height="17"/>
					</g>
					<g>
						<rect x="1614.3" y="791.3" class="st44" width="2.2" height="42.6"/>
					</g>
					<g>
						<rect x="1614.3" y="808.2" class="st67" width="2.2" height="25.7"/>
					</g>
				</g>
			</g>
			<g>
				<path class="st33" d="M1616.5,834.1l10.5,0l0-0.1h-10.5h-0.1h-10.5h-0.1h-10.5h-0.1h-10.5h-0.1h-10.5h-0.1h-10.5h-0.1h-10.5
					h-0.1h-10.5h-0.1h-10.5v-10v-0.1v-10v-0.1v-10v-0.1v-10v-0.1v-10h0.3v-0.1h-0.3V783h-0.1v10.5h-2.9v0.1h2.9v10h-2.9v0.1h2.9v10
					h-2.9v0.1h2.9v10h-2.9v0.1h2.9v10.1h0.1v0.1h10.5v2.6h0.1v-2.6h10.5 M1595.3,834.1h10.5v2.6h0.1v-2.6h10.5 M1574.1,834.1h10.5
					v2.6h0.1v-2.6h10.5 M1552.8,834.1h10.5v2.6h0.1v-2.6h10.5 M1552.7,836.7h0.1"/>
				<path class="st33" d="M1527.4,833.4c-0.3,0-0.4,0.2-0.4,0.7c0,0.4,0.1,0.7,0.4,0.7c0.3,0,0.4-0.2,0.4-0.7
					S1527.7,833.4,1527.4,833.4z M1527.4,834.6c-0.2,0-0.3-0.1-0.3-0.5c0-0.4,0.1-0.5,0.3-0.5c0.2,0,0.2,0.1,0.2,0.5
					C1527.7,834.4,1527.6,834.6,1527.4,834.6z"/>
				<polygon class="st33" points="1526.1,823.6 1526.2,823.7 1526.5,823.5 1526.5,824.6 1526.7,824.6 1526.7,823.3 1526.5,823.3 
									"/>
				<path class="st33" d="M1527.4,823.3c-0.3,0-0.4,0.2-0.4,0.7c0,0.4,0.1,0.7,0.4,0.7c0.3,0,0.4-0.2,0.4-0.7
					C1527.9,823.6,1527.7,823.3,1527.4,823.3z M1527.4,824.5c-0.2,0-0.3-0.1-0.3-0.5c0-0.4,0.1-0.5,0.3-0.5c0.2,0,0.2,0.1,0.2,0.5
					C1527.7,824.4,1527.6,824.5,1527.4,824.5z"/>
				<polygon class="st33" points="1541.7,837.7 1541.8,837.8 1542.1,837.7 1542.1,838.8 1542.2,838.8 1542.2,837.5 1542.1,837.5 
									"/>
				<path class="st33" d="M1526.8,813.6c0-0.2-0.2-0.3-0.4-0.3c-0.2,0-0.3,0.1-0.4,0.2l0.1,0.1c0.1-0.1,0.2-0.1,0.3-0.1
					c0.1,0,0.2,0.1,0.2,0.2c0,0.2-0.1,0.3-0.6,0.8v0.1h0.8l0-0.1h-0.6C1526.6,814,1526.8,813.8,1526.8,813.6z"/>
				<path class="st33" d="M1527.4,813.2c-0.3,0-0.4,0.2-0.4,0.7c0,0.4,0.1,0.7,0.4,0.7c0.3,0,0.4-0.2,0.4-0.7
					C1527.9,813.5,1527.7,813.2,1527.4,813.2z M1527.4,814.4c-0.2,0-0.3-0.1-0.3-0.5c0-0.4,0.1-0.5,0.3-0.5c0.2,0,0.2,0.1,0.2,0.5
					C1527.7,814.3,1527.6,814.4,1527.4,814.4z"/>
				<path class="st33" d="M1563.7,837.8c0-0.2-0.2-0.3-0.4-0.3c-0.2,0-0.3,0.1-0.4,0.2l0.1,0.1c0.1-0.1,0.2-0.1,0.3-0.1
					c0.1,0,0.2,0.1,0.2,0.2c0,0.2-0.1,0.3-0.6,0.8v0.1h0.8l0-0.1h-0.6C1563.6,838.2,1563.7,838,1563.7,837.8z"/>
				<path class="st33" d="M1526.3,804.2c-0.1,0-0.2,0-0.3-0.1l-0.1,0.1c0.1,0.1,0.2,0.2,0.4,0.2c0.3,0,0.4-0.2,0.4-0.4
					c0-0.2-0.1-0.3-0.3-0.3c0.1,0,0.3-0.1,0.3-0.3c0-0.2-0.1-0.3-0.4-0.3c-0.1,0-0.3,0-0.4,0.2l0.1,0.1c0.1-0.1,0.2-0.1,0.3-0.1
					c0.1,0,0.2,0.1,0.2,0.2c0,0.1-0.1,0.2-0.2,0.2h-0.1l0,0.1h0.1c0.2,0,0.3,0.1,0.3,0.2C1526.6,804.1,1526.5,804.2,1526.3,804.2z"
					/>
				<path class="st33" d="M1527.4,803c-0.3,0-0.4,0.2-0.4,0.7c0,0.4,0.1,0.7,0.4,0.7c0.3,0,0.4-0.2,0.4-0.7
					C1527.9,803.2,1527.7,803,1527.4,803z M1527.4,804.2c-0.2,0-0.3-0.2-0.3-0.5c0-0.4,0.1-0.5,0.3-0.5c0.2,0,0.2,0.2,0.2,0.5
					C1527.7,804,1527.6,804.2,1527.4,804.2z"/>
				<path class="st33" d="M1584.7,838.1c0.1,0,0.3-0.1,0.3-0.3c0-0.2-0.1-0.3-0.4-0.3c-0.1,0-0.3,0-0.4,0.2l0.1,0.1
					c0.1-0.1,0.2-0.1,0.3-0.1c0.1,0,0.2,0.1,0.2,0.2c0,0.1-0.1,0.2-0.2,0.2h-0.1l0,0.1h0.1c0.2,0,0.3,0.1,0.3,0.2
					c0,0.2-0.1,0.2-0.3,0.2c-0.1,0-0.2,0-0.3-0.1l-0.1,0.1c0.1,0.1,0.2,0.2,0.4,0.2c0.3,0,0.4-0.2,0.4-0.4
					C1585,838.2,1584.9,838.1,1584.7,838.1z"/>
				<polygon class="st33" points="1526.7,793.2 1526.5,793.2 1526.5,793.6 1526.1,793.6 1526.5,792.8 1526.3,792.7 1525.9,793.6 
					1525.9,793.7 1526.5,793.7 1526.5,794 1526.7,794 1526.7,793.7 1526.8,793.7 1526.8,793.6 1526.7,793.6 				"/>
				<path class="st33" d="M1527.4,792.7c-0.3,0-0.4,0.2-0.4,0.7s0.1,0.7,0.4,0.7c0.3,0,0.4-0.2,0.4-0.7S1527.7,792.7,1527.4,792.7z
					 M1527.4,793.9c-0.2,0-0.3-0.1-0.3-0.5c0-0.4,0.1-0.5,0.3-0.5c0.2,0,0.2,0.1,0.2,0.5C1527.7,793.7,1527.6,793.9,1527.4,793.9z"
					/>
				<polygon class="st33" points="1606,838 1605.9,838 1605.9,838.3 1605.5,838.3 1605.9,837.5 1605.7,837.5 1605.3,838.3 
					1605.3,838.4 1605.9,838.4 1605.9,838.8 1606,838.8 1606,838.4 1606.2,838.4 1606.2,838.3 1606,838.3 				"/>
			</g>
		</g>
	</g>
	<polyline class="st38" points="1549.2,885.9 1549.2,883.2 1549.2,877.2 1549.2,875 	"/>
	<polyline class="st38" points="1563.6,912.5 1561.1,910.1 1556.6,905.8 1553.8,903 	"/>
	<g>
		<rect x="1570.6" y="904.5" class="st54" width="46.9" height="1.9"/>
		<rect x="1570.6" y="904.5" class="st51" width="29.9" height="1.9"/>
	</g>
	<g>
		<path class="st54" d="M1549.4,883.2c7,0,12.8,5.6,12.8,12.4s-5.7,12.4-12.8,12.4s-12.8-5.6-12.8-12.4S1542.3,883.2,1549.4,883.2
			 M1549.4,877.2c-10.5,0-19,8.2-19,18.4s8.5,18.4,19,18.4s19-8.2,19-18.4S1559.9,877.2,1549.4,877.2L1549.4,877.2z"/>
		<g>
			<g>
				<text transform="matrix(1.0317 0 0 1 1557.416 855.3064)" class="st53 st45 st40">Lore Ipsum</text>
			</g>
			<line class="st58" x1="1551.1" y1="859.7" x2="1597.5" y2="859.7"/>
		</g>
		<g>
			<g>
				<text transform="matrix(1.0317 0 0 1 1541.5703 898.2781)" class="st56 st34 st57">50%</text>
			</g>
		</g>
		<path class="st51" d="M1549.4,877.2h-0.1v6c0,0,0.1,0,0.1,0c7,0,12.8,5.6,12.8,12.4c0,4.2-2.2,7.9-5.5,10.2l4.4,4.3
			c4.4-3.4,7.3-8.6,7.3-14.5C1568.3,885.4,1559.9,877.2,1549.4,877.2z"/>
		<g>
			<text transform="matrix(1.0317 0 0 1 1571.0977 883.9978)" class="st53 st45 st68">Lorem ipsum dolor</text>
		</g>
		<g>
			<rect x="1571.4" y="889.8" class="st38" width="48" height="11.2"/>
			<text transform="matrix(1.0317 0 0 1 1571.416 891.4949)"><tspan x="0" y="0" class="st69 st70 st65">consectetuer adipiscing elit, sed diam </tspan><tspan x="0" y="2.9" class="st69 st70 st65">nonummy nibh euismod tincidunt ut   ex ea </tspan><tspan x="0" y="5.7" class="st69 st70 st65">commo do consequat</tspan></text>
		</g>
	</g>
</g>
<g id="_x38_X97uE.tif">
	
		<image style="overflow:visible;" width="1807" height="2048" id="Layer_0_1_" xlink:href="B84BBDA0AFA73AD6.png"  transform="matrix(0.1227 0 0 0.1227 1538.9011 62.0833)">
	</image>
</g>
<g id="AjHVBZ.tif">
	
		<image style="overflow:visible;" width="1776" height="1413" xlink:href="B84BBDA0AFA73ADA.png"  transform="matrix(0.1517 0 0 0.1517 63.9227 215.961)">
	</image>
</g>
<g id="RaHE7A.tif">
	
		<image style="overflow:visible;" width="2550" height="1968" id="Layer_0_2_" xlink:href="B84BBDA0AFA73ADD.png"  transform="matrix(0.1159 0 0 0.1159 63.9227 775.0222)">
	</image>
</g>
<g id="YU6gAM.tif">
	
		<image style="overflow:visible;" width="372" height="413" xlink:href="B84BBDA0AFA73ADE.png"  transform="matrix(0.4164 0 0 0.4164 192.8399 525.4729)">
	</image>
</g>
</svg>
